<svg width="237" height="107" viewBox="0 0 237 107" fill="none" xmlns="http://www.w3.org/2000/svg">
<g clip-path="url(#clip0_216_885)">
<path d="M112.44 105.607H162.82C164.809 105.607 164.812 102.516 162.82 102.516H112.44C110.451 102.516 110.448 105.607 112.44 105.607Z" fill="#E6E6E6"/>
<path d="M98.8378 38.4387H48.6272C48.0968 38.4393 47.5883 38.6503 47.2132 39.0254C46.8382 39.4005 46.6272 39.909 46.6266 40.4394V50.4141C49.1312 50.4731 50.7569 52.5398 51.1508 55.0488V64.0915H51.341C51.3713 64.0915 51.4002 64.1036 51.4216 64.125C51.443 64.1464 51.4551 64.1753 51.4551 64.2056V69.0173C51.4551 69.0475 51.443 69.0765 51.4216 69.0979C51.4002 69.1193 51.3713 69.1313 51.341 69.1314H51.1508V98.2144C51.1508 98.8534 51.1444 100.019 51.1444 100.019H98.8378C99.3683 100.019 99.8768 99.8075 100.252 99.4325C100.627 99.0574 100.838 98.5489 100.839 98.0185V40.4394C100.838 39.9089 100.627 39.4004 100.252 39.0254C99.8768 38.6503 99.3683 38.4393 98.8378 38.4387Z" fill="#3467DF"/>
<path d="M192.128 5.61783V60.1986H104.311V36.1679C104.31 35.0767 103.876 34.0305 103.105 33.259C102.333 32.4874 101.287 32.0535 100.196 32.0524H83.7265V5.61783H192.128Z" fill="#3467DF"/>
<path d="M197.549 67.8933H104.409V67.5129H197.169V3.23302C197.168 2.47671 196.867 1.75162 196.333 1.21683C195.798 0.682034 195.073 0.381211 194.316 0.380354H80.4001C79.6438 0.381211 78.9187 0.682034 78.3839 1.21683C77.8492 1.75162 77.5483 2.47671 77.5475 3.23302V31.806H77.1671V3.23302C77.1681 2.37587 77.509 1.55409 78.1151 0.947995C78.7212 0.341897 79.543 0.000964678 80.4001 0H194.316C195.174 0.000963316 195.995 0.341892 196.601 0.947992C197.208 1.55409 197.548 2.37587 197.549 3.23302V67.8933Z" fill="#3F3D56"/>
<path d="M188.724 79.4942H104.409V79.1138H188.724C190.963 79.1113 193.11 78.2208 194.693 76.6376C196.276 75.0544 197.166 72.9079 197.169 70.6689V67.8934H104.409V67.513H197.549V70.6689C197.547 73.0087 196.616 75.2519 194.962 76.9064C193.307 78.5609 191.064 79.4916 188.724 79.4942Z" fill="#3F3D56"/>
<path d="M163.701 98.1314C159.001 93.6181 155.909 87.7293 154.915 79.494H120.273C119.921 87.1986 116.849 92.9769 111.306 98.1111L110.721 98.1315C116.439 92.9495 119.588 87.1288 119.901 79.2962L119.908 79.1136H155.253L155.273 79.2818C156.249 87.6566 159.406 93.5834 164.222 98.1009L163.701 98.1314Z" fill="#3F3D56"/>
<path d="M100.104 106H46.7405V105.619H100.104C101.195 105.618 102.241 105.184 103.012 104.413C103.784 103.641 104.218 102.595 104.219 101.504V36.2552C104.218 35.1642 103.784 34.1182 103.012 33.3467C102.241 32.5752 101.195 32.1412 100.104 32.14H46.7405C45.6494 32.1412 44.6034 32.5752 43.8319 33.3467C43.0604 34.1182 42.6264 35.1642 42.6252 36.2552V50.3363H42.2448V36.2552C42.2462 35.0634 42.7203 33.9207 43.5631 33.0779C44.4059 32.2351 45.5486 31.761 46.7405 31.7596H100.104C101.296 31.761 102.438 32.235 103.281 33.0778C104.124 33.9206 104.598 35.0633 104.599 36.2552V101.504C104.598 102.696 104.124 103.839 103.281 104.681C102.438 105.524 101.296 105.998 100.104 106Z" fill="#3F3D56"/>
<path d="M73.4221 36.5717C73.167 36.5717 72.9177 36.496 72.7056 36.3543C72.4936 36.2126 72.3283 36.0112 72.2307 35.7756C72.1331 35.5399 72.1075 35.2806 72.1573 35.0305C72.207 34.7803 72.3299 34.5505 72.5102 34.3702C72.6906 34.1898 72.9203 34.067 73.1705 34.0172C73.4207 33.9675 73.6799 33.993 73.9156 34.0906C74.1512 34.1882 74.3526 34.3535 74.4944 34.5656C74.6361 34.7776 74.7117 35.027 74.7117 35.282C74.7113 35.6239 74.5753 35.9517 74.3336 36.1935C74.0918 36.4353 73.764 36.5713 73.4221 36.5717ZM73.4221 34.2905C73.226 34.2905 73.0343 34.3487 72.8712 34.4576C72.7082 34.5666 72.5811 34.7214 72.5061 34.9026C72.431 35.0838 72.4114 35.2832 72.4496 35.4755C72.4879 35.6678 72.5823 35.8445 72.721 35.9832C72.8597 36.1218 73.0364 36.2163 73.2287 36.2545C73.421 36.2928 73.6204 36.2731 73.8016 36.1981C73.9827 36.123 74.1376 35.9959 74.2465 35.8329C74.3555 35.6698 74.4136 35.4781 74.4136 35.282C74.4133 35.0191 74.3088 34.7671 74.1229 34.5813C73.937 34.3954 73.685 34.2908 73.4221 34.2905Z" fill="#3F3D56"/>
<path d="M73.4221 104.542C73.0966 104.542 72.7785 104.445 72.5079 104.265C72.2373 104.084 72.0264 103.827 71.9018 103.526C71.7773 103.225 71.7447 102.895 71.8082 102.575C71.8717 102.256 72.0284 101.963 72.2585 101.733C72.4886 101.503 72.7818 101.346 73.101 101.282C73.4202 101.219 73.7511 101.251 74.0518 101.376C74.3524 101.501 74.6094 101.711 74.7903 101.982C74.9711 102.253 75.0676 102.571 75.0676 102.896C75.0671 103.333 74.8936 103.751 74.5851 104.059C74.2766 104.368 73.8583 104.541 73.4221 104.542ZM73.4221 101.631C73.1718 101.631 72.9272 101.705 72.7192 101.844C72.5111 101.983 72.349 102.181 72.2532 102.412C72.1574 102.643 72.1324 102.898 72.1812 103.143C72.23 103.389 72.3505 103.614 72.5275 103.791C72.7044 103.968 72.9299 104.088 73.1753 104.137C73.4207 104.186 73.6751 104.161 73.9063 104.065C74.1374 103.969 74.335 103.807 74.474 103.599C74.6131 103.391 74.6873 103.147 74.6872 102.896C74.6869 102.561 74.5534 102.239 74.3163 102.002C74.0791 101.765 73.7575 101.632 73.4221 101.631Z" fill="#3F3D56"/>
<path d="M46.2046 106.11H28.5398C27.21 106.108 25.9351 105.579 24.9947 104.639C24.0544 103.699 23.5254 102.424 23.524 101.094V55.3522C23.5255 54.0224 24.0544 52.7475 24.9947 51.8071C25.9351 50.8668 27.21 50.3379 28.5398 50.3364H46.2046C47.5344 50.3379 48.8093 50.8668 49.7497 51.8071C50.69 52.7475 51.2189 54.0224 51.2204 55.3522V63.5379C51.3105 63.5755 51.3875 63.6389 51.4416 63.7202C51.4958 63.8014 51.5247 63.8968 51.5248 63.9944L51.5248 69.3207C51.5247 69.4183 51.4957 69.5137 51.4416 69.5949C51.3874 69.6761 51.3105 69.7395 51.2204 69.7772V101.094C51.2189 102.424 50.69 103.699 49.7496 104.639C48.8093 105.579 47.5344 106.108 46.2046 106.11ZM28.5398 50.7167C27.3108 50.7181 26.1326 51.2069 25.2636 52.076C24.3945 52.945 23.9057 54.1232 23.9043 55.3522V101.094C23.9057 102.323 24.3945 103.501 25.2635 104.37C26.1326 105.239 27.3108 105.728 28.5398 105.729H46.2045C47.4335 105.728 48.6118 105.239 49.4808 104.37C50.3498 103.501 50.8387 102.323 50.8401 101.094V69.4348H51.0303C51.0605 69.4348 51.0895 69.4227 51.1109 69.4013C51.1324 69.38 51.1444 69.3509 51.1444 69.3207L51.1444 63.9944C51.1444 63.9641 51.1324 63.9351 51.111 63.9137C51.0896 63.8923 51.0605 63.8802 51.0303 63.8802H50.8401V55.3522C50.8387 54.1232 50.3498 52.945 49.4808 52.076C48.6118 51.2069 47.4336 50.7181 46.2046 50.7167H28.5398Z" fill="#3F3D56"/>
<path d="M46.3992 51.782H44.0934C44.1994 52.042 44.2399 52.3241 44.2113 52.6034C44.1826 52.8827 44.0857 53.1506 43.9291 53.3837C43.7725 53.6167 43.561 53.8076 43.3132 53.9397C43.0654 54.0717 42.789 54.1408 42.5082 54.1408H32.3883C32.1075 54.1408 31.8311 54.0717 31.5833 53.9397C31.3355 53.8076 31.124 53.6167 30.9674 53.3837C30.8108 53.1506 30.7139 52.8827 30.6852 52.6034C30.6566 52.3241 30.697 52.042 30.8031 51.782H28.6494C27.6937 51.782 26.777 52.1617 26.1012 52.8375C25.4253 53.5134 25.0457 54.43 25.0457 55.3858V101.06C25.0457 102.016 25.4253 102.933 26.1012 103.609C26.777 104.285 27.6937 104.664 28.6494 104.664H46.3993C47.355 104.664 48.2717 104.285 48.9475 103.609C49.6233 102.933 50.003 102.016 50.003 101.06V55.3858C50.003 54.43 49.6233 53.5134 48.9475 52.8375C48.2717 52.1617 47.355 51.782 46.3992 51.782Z" fill="#3467DF"/>
<path d="M236.774 106.035H0.226442C0.196641 106.036 0.167115 106.03 0.139554 106.018C0.111992 106.007 0.0869367 105.99 0.0658287 105.969C0.0447206 105.948 0.0279738 105.923 0.0165462 105.896C0.00511866 105.868 -0.000762939 105.839 -0.000762939 105.809C-0.000762939 105.779 0.00511866 105.75 0.0165462 105.722C0.0279738 105.695 0.0447206 105.67 0.0658287 105.649C0.0869367 105.628 0.111992 105.611 0.139554 105.6C0.167115 105.588 0.196641 105.582 0.226442 105.583H236.774C236.803 105.582 236.833 105.588 236.86 105.6C236.888 105.611 236.913 105.628 236.934 105.649C236.955 105.67 236.972 105.695 236.983 105.722C236.995 105.75 237.001 105.779 237.001 105.809C237.001 105.839 236.995 105.868 236.983 105.896C236.972 105.923 236.955 105.948 236.934 105.969C236.913 105.99 236.888 106.007 236.86 106.018C236.833 106.03 236.803 106.036 236.774 106.035Z" fill="#3F3D56"/>
<path d="M163.819 105.929H111.139C110.615 105.929 110.095 105.826 109.61 105.626C109.125 105.425 108.685 105.131 108.313 104.76C107.942 104.389 107.648 103.949 107.447 103.464C107.246 102.979 107.142 102.46 107.142 101.935C107.142 101.41 107.246 100.891 107.447 100.406C107.648 99.9213 107.942 99.4809 108.313 99.11C108.685 98.7391 109.125 98.445 109.61 98.2445C110.095 98.044 110.615 97.941 111.139 97.9414H163.819C164.877 97.9422 165.892 98.3634 166.641 99.1123C167.389 99.8611 167.809 100.876 167.809 101.935C167.809 102.994 167.389 104.009 166.641 104.758C165.892 105.507 164.877 105.928 163.819 105.929ZM111.139 98.3217C110.181 98.3217 109.262 98.7024 108.584 99.3801C107.907 100.058 107.526 100.977 107.526 101.935C107.526 102.893 107.907 103.813 108.584 104.49C109.262 105.168 110.181 105.548 111.139 105.548H163.819C164.777 105.548 165.696 105.168 166.374 104.49C167.051 103.813 167.432 102.893 167.432 101.935C167.432 100.977 167.051 100.058 166.374 99.3801C165.696 98.7024 164.777 98.3217 163.819 98.3217H111.139Z" fill="#3F3D56"/>
<path d="M202.069 75.5209L203.544 78.6057L216.144 74.3829L213.967 69.8302L202.069 75.5209Z" fill="#FFB8B8"/>
<path d="M203.525 85.9246L198.888 76.23L202.634 74.4385L205.616 80.6739C206.055 81.5913 206.112 82.6455 205.773 83.6045C205.435 84.5635 204.729 85.3488 203.812 85.7876L203.525 85.9246Z" fill="#2F2E41"/>
<path d="M199.099 103.068L202.516 102.952L202.66 89.6498L198.654 89.8862L199.099 103.068Z" fill="#FFB8B8"/>
<path d="M209.147 106.085H198.4V101.933H205.312C206.329 101.933 207.305 102.337 208.024 103.056C208.743 103.776 209.147 104.751 209.147 105.768V106.085Z" fill="#2F2E41"/>
<path d="M199.38 101.069C199.093 101.069 198.815 100.973 198.589 100.796C198.364 100.62 198.204 100.372 198.136 100.094C196.264 92.5724 189.298 54.6745 195.458 47.2312L195.511 47.1663L195.593 47.1457C196.025 47.0363 204.177 44.5125 208.96 48.4518L209.016 48.4978L211.677 56.2033L218.853 66.8553C219.246 67.4387 219.518 68.095 219.653 68.7853C219.787 69.4756 219.782 70.186 219.637 70.8743C219.492 71.5625 219.211 72.2147 218.809 72.7921C218.407 73.3696 217.894 73.8605 217.299 74.2359L207.876 80.1822C207.649 80.3196 207.384 80.3834 207.119 80.3647C206.854 80.346 206.601 80.2458 206.395 80.0778C206.221 79.9345 206.088 79.7489 206.008 79.539L204.028 74.5884C203.91 74.2883 203.908 73.9549 204.022 73.6534C204.137 73.3519 204.36 73.104 204.648 72.9582L209.063 70.7508C209.183 70.6842 209.288 70.5919 209.37 70.4805C209.451 70.3691 209.507 70.2412 209.534 70.1059C209.546 69.9834 209.528 69.8598 209.482 69.7458C209.436 69.6317 209.363 69.5305 209.269 69.4508L204.144 65.033C204.03 64.9348 203.89 64.8719 203.741 64.8522C203.592 64.8325 203.44 64.8567 203.305 64.9219C203.169 64.9872 203.055 65.0906 202.978 65.2195C202.9 65.3483 202.862 65.4971 202.867 65.6474L204.138 99.1848C204.15 99.4997 204.046 99.8079 203.845 100.051C203.645 100.295 203.363 100.456 203.052 100.506L199.586 101.053C199.518 101.064 199.449 101.069 199.38 101.069Z" fill="#2F2E41"/>
<path d="M208.22 49.8189C208.191 49.8189 208.162 49.8178 208.133 49.8156L195.353 48.8689C195.175 48.856 195.003 48.8025 194.85 48.7123C194.696 48.6222 194.566 48.4979 194.468 48.3492C194.371 48.2004 194.309 48.0312 194.288 47.8546C194.266 47.6781 194.285 47.4989 194.344 47.3311C195.131 45.0646 195.227 42.6159 194.622 40.2945C193.789 37.0125 193.77 30.9101 193.832 27.5648C193.846 26.9976 194.073 26.4567 194.469 26.0498C194.864 25.643 195.398 25.4001 195.965 25.3697L195.965 25.3652L196.223 25.3683C198.304 25.3975 202.125 25.546 205.251 26.1965C206.305 26.4146 207.253 26.9849 207.939 27.8135C208.626 28.6422 209.009 29.6798 209.027 30.7556C209.098 33.8615 209.109 38.0655 208.756 40.4552C208.459 42.4713 209.008 46.3431 209.362 48.4715C209.389 48.6373 209.38 48.807 209.335 48.9689C209.291 49.1309 209.211 49.2812 209.103 49.4093C208.994 49.5375 208.859 49.6405 208.706 49.7113C208.554 49.782 208.388 49.8187 208.22 49.8189Z" fill="#3F3D56"/>
<path d="M212.782 62.0017C212.442 61.8386 212.141 61.6029 211.902 61.3111C211.662 61.0194 211.49 60.6786 211.396 60.3129C211.303 59.9472 211.29 59.5654 211.36 59.1944C211.43 58.8235 211.581 58.4724 211.801 58.1658L205.898 32.7124H210.361L215.57 57.6641C216.061 58.0684 216.386 58.6385 216.484 59.2664C216.582 59.8944 216.447 60.5365 216.103 61.0711C215.759 61.6058 215.231 61.9958 214.619 62.1673C214.008 62.3388 213.354 62.2799 212.782 62.0017Z" fill="#FFB8B8"/>
<path d="M184.828 35.4697L191.894 28.785L194.557 32.5121L187.901 38.3692L196.63 45.3007C196.693 45.2964 196.755 45.2911 196.82 45.2911C197.357 45.2906 197.883 45.4448 198.334 45.7353C198.786 46.0259 199.145 46.4404 199.367 46.9294C199.589 47.4183 199.666 47.9609 199.588 48.4924C199.51 49.0238 199.281 49.5215 198.927 49.926C198.574 50.3304 198.111 50.6244 197.595 50.7729C197.079 50.9214 196.531 50.918 196.017 50.7632C195.502 50.6084 195.043 50.3087 194.695 49.8999C194.347 49.4911 194.123 48.9906 194.052 48.4583L194.024 48.4858L184.94 40.6125C184.573 40.2951 184.278 39.9045 184.072 39.4659C183.866 39.0273 183.754 38.5504 183.743 38.0659C183.733 37.5815 183.824 37.1001 184.01 36.653C184.197 36.2058 184.476 35.8028 184.828 35.4697Z" fill="#FFB8B8"/>
<path d="M206.369 34.3434C206.15 34.3441 205.936 34.2826 205.751 34.1661C205.566 34.0496 205.418 33.883 205.325 33.6856C204.762 32.4968 204.374 31.2327 204.174 29.9326C203.867 27.8091 205.344 26.5459 206.846 26.2707C208.306 26.0029 210.085 26.6451 210.54 28.6875C210.578 28.8604 210.608 29.0351 210.628 29.211C210.81 30.7592 210.982 31.9633 211.138 32.7901C211.168 32.9527 211.163 33.1199 211.124 33.2806C211.084 33.4412 211.011 33.5915 210.909 33.7214C210.806 33.8512 210.677 33.9576 210.53 34.0334C210.383 34.1091 210.221 34.1525 210.056 34.1605L206.428 34.3419C206.408 34.3429 206.388 34.3434 206.369 34.3434Z" fill="#3F3D56"/>
<path d="M201.309 23.1773C205.576 23.1773 209.036 19.7176 209.036 15.4499C209.036 11.1822 205.576 7.72258 201.309 7.72258C197.041 7.72258 193.581 11.1822 193.581 15.4499C193.581 19.7176 197.041 23.1773 201.309 23.1773Z" fill="#2F2E41"/>
<path d="M201.356 23.7822C204.85 23.7822 207.682 20.9497 207.682 17.4558C207.682 13.9618 204.85 11.1294 201.356 11.1294C197.862 11.1294 195.029 13.9618 195.029 17.4558C195.029 20.9497 197.862 23.7822 201.356 23.7822Z" fill="#FFB8B8"/>
<path d="M190.127 31.2645C189.966 31.1174 189.849 30.9274 189.792 30.7167C189.734 30.5059 189.738 30.2831 189.802 30.0743C190.19 28.8175 190.758 27.6236 191.489 26.53C192.698 24.7574 194.64 24.8237 195.933 25.6353C197.191 26.4248 198.068 28.1003 197.024 29.9133C196.935 30.0665 196.839 30.2152 196.735 30.3587C195.823 31.6231 195.136 32.6266 194.692 33.3415C194.605 33.482 194.489 33.6022 194.351 33.6939C194.213 33.7857 194.058 33.8469 193.894 33.8734C193.731 33.8999 193.564 33.8911 193.404 33.8475C193.245 33.804 193.096 33.7269 192.969 33.6212L190.172 31.3034C190.157 31.2908 190.142 31.2778 190.127 31.2645Z" fill="#3F3D56"/>
<path d="M199.808 8.54873C198.253 7.62093 197.916 5.3105 198.842 3.75473C199.769 2.19895 201.641 1.38739 203.451 1.3339C206.036 1.2575 208.533 2.54475 210.343 4.39263C212.152 6.24052 213.346 8.60592 214.256 11.027C215.166 13.4481 215.819 15.9591 216.716 18.3851C217.176 19.63 217.743 20.9083 218.796 21.7167C219.848 22.5251 221.521 22.6709 222.421 21.6953C222.418 23.2565 221.221 24.6757 219.736 25.1591C218.252 25.6424 216.573 25.2774 215.271 24.415C213.014 22.9189 211.924 20.1878 211.301 17.5521C210.677 14.9164 210.371 12.1545 209.118 9.75321C208.599 8.7583 207.888 7.8132 206.887 7.30554C205.886 6.79789 204.553 6.83123 203.748 7.61301C203.375 7.97512 203.134 8.46888 202.71 8.77073C202.443 8.93819 202.14 9.04224 201.826 9.07494C201.512 9.10765 201.194 9.06814 200.898 8.95944C200.307 8.73737 199.755 8.42546 199.259 8.03474" fill="#2F2E41"/>
<path d="M194.749 13.1812C195.358 14.001 196.128 14.6888 197.01 15.2033C197.893 15.7178 198.871 16.0483 199.884 16.1748C200.898 16.3013 201.927 16.2213 202.909 15.9396C203.891 15.6579 204.806 15.1802 205.598 14.5355C206.213 14.0357 206.783 13.3469 206.745 12.556C206.705 11.7458 206.043 11.1095 205.367 10.6614C203.588 9.49237 201.449 9.00083 199.338 9.27629C198.134 9.43811 196.926 9.877 196.074 10.7425C195.221 11.6079 194.796 12.954 195.236 14.0865" fill="#2F2E41"/>
</g>
<defs>
<clipPath id="clip0_216_885">
<rect width="237" height="106.11" fill="white"/>
</clipPath>
</defs>
</svg>
