<svg width="274" height="149" viewBox="0 0 274 149" fill="none" xmlns="http://www.w3.org/2000/svg">
<g clip-path="url(#clip0_45_1057)">
<path d="M62.0112 129.563C61.9586 135.554 61.5198 141.535 60.6973 147.47C60.6686 147.679 60.6372 147.887 60.6083 148.095L4.50047 147.782C4.33573 147.575 4.17358 147.366 4.01648 147.154C3.49265 146.452 3.0017 145.731 2.551 144.984C0.384758 141.389 -0.60697 137.179 0.386838 134.274L0.404633 134.229C0.619159 133.593 0.957205 133.006 1.39936 132.501C3.66522 129.95 8.24657 130.375 12.404 132.434C8.67507 128.352 5.70582 123.202 5.48022 118.604C5.25901 114.12 7.60386 110.916 10.1471 108.194C10.2306 108.104 10.314 108.016 10.3975 107.929C10.438 107.884 10.4809 107.842 10.5213 107.796C12.5056 105.722 14.8189 103.677 18.1674 103.924C21.8397 104.196 25.9112 107.272 28.766 110.856C31.6209 114.438 33.518 118.507 35.4409 122.478C37.3662 126.447 39.4493 130.517 42.539 133.909C38.3543 128.616 34.9803 122.594 33.734 116.737C32.4876 110.88 33.5845 105.254 37.314 102.496C38.4463 101.684 39.7565 101.155 41.1349 100.954C41.2958 100.927 41.4593 100.905 41.6253 100.886C45.0778 100.493 49.2 101.687 52.7072 104.542C56.5697 107.684 59.2475 112.343 60.5799 116.766C61.9122 121.189 62.0542 125.447 62.0112 129.563Z" fill="#F2F2F2"/>
<path d="M25.3022 147.898L24.2293 147.892C23.8887 147.679 23.5464 147.469 23.2025 147.261C22.9896 147.127 22.7743 146.997 22.5588 146.865C19 144.692 15.419 142.607 11.8157 140.611C8.21569 138.613 4.59758 136.707 0.96136 134.893C0.864974 134.851 0.78634 134.777 0.739117 134.683C0.691894 134.589 0.679068 134.482 0.702873 134.379C0.706768 134.366 0.712807 134.353 0.720753 134.342C0.771471 134.246 0.884825 134.207 1.05026 134.288C1.49627 134.512 1.94485 134.736 2.39083 134.964C6.03697 136.809 9.66747 138.746 13.2823 140.775C16.8947 142.803 20.4864 144.92 24.0576 147.127C24.1327 147.173 24.2079 147.221 24.283 147.267C24.6236 147.477 24.9617 147.688 25.3022 147.898Z" fill="white"/>
<path d="M39.1358 147.976L38.4723 147.972C38.3227 147.762 38.1756 147.553 38.026 147.344C34.5103 142.414 30.9954 137.484 27.4813 132.554C21.7264 124.482 15.9732 116.411 10.2218 108.34C10.1877 108.297 10.1624 108.247 10.1472 108.194C10.098 108.015 10.2292 107.911 10.3975 107.929C10.4684 107.939 10.5364 107.964 10.5968 108.003C10.6573 108.041 10.7088 108.092 10.748 108.152C13.9745 112.678 17.2002 117.203 20.4251 121.726C26.15 129.757 31.8741 137.787 37.5973 145.816C37.9614 146.325 38.3254 146.838 38.6895 147.347C38.8391 147.557 38.9887 147.766 39.1358 147.976Z" fill="white"/>
<path d="M53.9159 144.123C53.8821 145.241 53.808 146.341 53.7114 147.431C53.6927 147.64 53.6739 147.848 53.6551 148.057L52.9591 148.053C52.9804 147.844 53.0016 147.636 53.0204 147.427C53.1674 145.853 53.2718 144.26 53.286 142.624C53.3045 138.089 52.8625 133.563 51.9668 129.117C51.0147 124.33 49.6477 119.634 47.8811 115.084C46.0271 110.285 43.7917 105.643 41.1964 101.2C41.1475 101.128 41.1257 101.041 41.1349 100.954C41.1637 100.755 41.4278 100.697 41.6253 100.886C41.6643 100.923 41.6979 100.966 41.7251 101.012C42.0462 101.565 42.3614 102.118 42.6708 102.674C45.1703 107.141 47.3098 111.799 49.0689 116.606C50.7444 121.171 52.0188 125.874 52.8778 130.66C53.6825 135.1 54.0303 139.612 53.9159 144.123Z" fill="white"/>
<path d="M248.282 115.409C248.282 112.718 238.154 110.537 225.66 110.537C213.166 110.537 203.038 112.718 203.038 115.409C203.038 117.134 207.202 118.648 213.479 119.514V146.21C213.479 146.81 213.717 147.385 214.142 147.809C214.566 148.234 215.141 148.472 215.741 148.472C216.341 148.472 216.917 148.234 217.341 147.809C217.765 147.385 218.003 146.81 218.003 146.21V119.995C220.395 120.18 222.972 120.282 225.66 120.282C228.348 120.282 230.925 120.18 233.317 119.995V146.21C233.317 146.81 233.555 147.385 233.979 147.809C234.403 148.234 234.979 148.472 235.579 148.472C236.179 148.472 236.754 148.234 237.178 147.809C237.603 147.385 237.841 146.81 237.841 146.21V119.514C244.118 118.648 248.282 117.134 248.282 115.409Z" fill="#CCCCCC"/>
<path d="M228.162 70.8124C233.543 70.8124 237.906 66.4495 237.906 61.0676C237.906 55.6857 233.543 51.3228 228.162 51.3228C222.78 51.3228 218.417 55.6857 218.417 61.0676C218.417 66.4495 222.78 70.8124 228.162 70.8124Z" fill="#2F2E41"/>
<path d="M203.911 144.443H199.644L197.614 127.986H203.911L203.911 144.443Z" fill="#A0616A"/>
<path d="M196.596 143.224H204.825V148.405H191.415C191.415 147.725 191.549 147.051 191.81 146.422C192.07 145.794 192.452 145.223 192.933 144.741C193.414 144.26 193.985 143.879 194.614 143.618C195.242 143.358 195.916 143.224 196.596 143.224Z" fill="#2F2E41"/>
<path d="M197.251 142.062L193.18 140.784L196.17 124.474L202.178 126.359L197.251 142.062Z" fill="#A0616A"/>
<path d="M190.636 138.709L198.488 141.172L196.936 146.116L184.142 142.101C184.345 141.451 184.675 140.849 185.112 140.327C185.548 139.805 186.083 139.374 186.687 139.06C187.29 138.745 187.949 138.551 188.627 138.491C189.304 138.431 189.987 138.505 190.636 138.709Z" fill="#2F2E41"/>
<path d="M198.639 135.495C198.452 135.495 198.266 135.462 198.091 135.396L194.952 134.219C194.6 134.085 194.307 133.83 194.128 133.499C193.948 133.168 193.893 132.783 193.973 132.415C194.763 128.861 197.457 116.764 198.932 110.275C200.681 102.578 226.197 101.148 227.282 101.091L227.371 101.086L230.242 104.693C231.279 108.027 230.95 110.627 229.265 112.422C224.346 117.659 209.661 114.409 207.91 113.998L200.105 134.487C199.991 134.784 199.79 135.039 199.528 135.219C199.267 135.399 198.956 135.495 198.639 135.495Z" fill="#2F2E41"/>
<path d="M203.163 137.932C202.976 137.932 202.791 137.898 202.616 137.832L199.477 136.655C199.124 136.522 198.832 136.266 198.652 135.935C198.472 135.604 198.417 135.219 198.497 134.851C199.288 131.298 201.981 119.2 203.456 112.711C205.205 105.015 230.721 103.584 231.806 103.527L231.896 103.522L234.766 107.13C235.803 110.463 235.475 113.064 233.789 114.859C228.871 120.095 214.186 116.846 212.434 116.434L204.629 136.923C204.515 137.22 204.314 137.475 204.053 137.655C203.791 137.835 203.48 137.932 203.163 137.932Z" fill="#2F2E41"/>
<path d="M194.081 87.8087C194.196 87.963 194.299 88.1261 194.389 88.2965L211.554 90.1049L214.025 86.7172L219.625 89.778L214.772 97.9988L193.72 92.6314C193.189 93.1491 192.513 93.493 191.782 93.6171C191.051 93.7413 190.299 93.6399 189.627 93.3264C188.954 93.0129 188.393 92.5021 188.019 91.8621C187.644 91.2221 187.472 90.4831 187.528 89.7434C187.583 89.0037 187.862 88.2984 188.328 87.7213C188.794 87.1441 189.425 86.7225 190.136 86.5125C190.848 86.3025 191.606 86.314 192.311 86.5456C193.015 86.7771 193.633 87.2177 194.081 87.8087Z" fill="#A0616A"/>
<path d="M233.97 108.51C233.721 108.509 233.477 108.449 233.256 108.336C229.824 106.59 223.14 103.568 216.943 102.935C216.731 102.915 216.525 102.85 216.34 102.745C216.154 102.64 215.993 102.497 215.865 102.326C215.736 102.154 215.643 101.956 215.593 101.746C215.543 101.536 215.537 101.317 215.575 101.105C216.135 98.0087 217.418 90.1254 217.252 83.8072C217.204 81.8646 217.817 79.9631 218.993 78.4156C220.168 76.868 221.835 75.7664 223.719 75.2918C224.854 74.9925 226.006 74.7654 227.169 74.6117C228.506 74.4424 229.864 74.5885 231.135 75.0384C232.405 75.4883 233.552 76.2294 234.484 77.2025C235.417 78.1755 236.108 79.3534 236.504 80.6417C236.899 81.9301 236.987 83.2931 236.761 84.6216C235.655 91.1692 234.541 100.314 235.51 106.698C235.554 106.984 235.518 107.277 235.407 107.544C235.295 107.811 235.112 108.042 234.877 108.211C234.614 108.404 234.296 108.509 233.97 108.51Z" fill="#3467DF"/>
<path d="M217.57 91.8563C217.356 91.856 217.144 91.8118 216.948 91.7265L212.477 89.7909C212.096 89.6255 211.796 89.3158 211.644 88.9298C211.491 88.5438 211.497 88.1129 211.662 87.7317L215.118 79.7471C215.327 79.2644 215.628 78.8276 216.006 78.4616C216.383 78.0956 216.829 77.8075 217.318 77.6138C217.807 77.4202 218.329 77.3247 218.855 77.3329C219.38 77.3412 219.899 77.4529 220.382 77.6617C220.864 77.8706 221.301 78.1724 221.667 78.5501C222.033 78.9278 222.32 79.3738 222.514 79.8627C222.707 80.3517 222.802 80.8739 222.794 81.3996C222.785 81.9253 222.673 82.4442 222.464 82.9266L219.008 90.9112C218.886 91.1915 218.685 91.4303 218.43 91.5982C218.174 91.7661 217.876 91.8558 217.57 91.8563Z" fill="#3467DF"/>
<path d="M227.805 71.8954C232.526 71.8954 236.353 68.0684 236.353 63.3475C236.353 58.6266 232.526 54.7996 227.805 54.7996C223.085 54.7996 219.258 58.6266 219.258 63.3475C219.258 68.0684 223.085 71.8954 227.805 71.8954Z" fill="#A0616A"/>
<path d="M219.104 59.1478C223.152 61.6194 227.717 63.1235 232.442 63.5429L231.036 61.8582C232.06 62.2367 233.137 62.4506 234.228 62.492C235.317 62.475 236.459 62.0556 237.077 61.1584C237.353 60.7125 237.516 60.2064 237.554 59.6835C237.592 59.1605 237.503 58.6361 237.295 58.1551C236.866 57.1956 236.199 56.3617 235.357 55.7327C233.865 54.5523 232.104 53.7594 230.231 53.4247C228.358 53.0899 226.431 53.2238 224.623 53.8143C223.382 54.185 222.271 54.8978 221.416 55.8709C220.606 56.8706 219.046 57.7612 219.461 58.9794L219.104 59.1478Z" fill="#2F2E41"/>
<path d="M229.242 52.2496C226.546 49.5157 223.284 47.406 219.685 46.069C217.374 45.213 214.859 44.6842 212.444 45.1703C210.028 45.6563 207.744 47.3274 207.07 49.6973C206.519 51.6353 207.088 53.7218 207.943 55.5461C208.798 57.3704 209.94 59.062 210.632 60.9544C211.337 62.8853 211.549 64.9618 211.249 66.9954C210.949 69.0291 210.145 70.9555 208.911 72.5998C207.677 74.2442 206.052 75.5543 204.184 76.4113C202.315 77.2683 200.262 77.645 198.211 77.5073C200.584 77.8256 202.772 78.9409 205.092 79.5345C207.411 80.1282 210.149 80.0879 211.873 78.426C213.697 76.6676 213.734 73.8087 213.646 71.2767C213.515 67.5128 213.384 63.7489 213.252 59.9849C213.186 58.0654 213.128 56.0844 213.821 54.2928C214.513 52.5012 216.158 50.9323 218.079 50.9486C219.534 50.961 220.823 51.8428 221.99 52.7124C223.157 53.5821 224.393 54.5099 225.843 54.6393C227.293 54.7686 228.948 53.6956 228.84 52.244" fill="#2F2E41"/>
<path d="M213.434 106.314C212.868 106.314 212.308 106.187 211.797 105.945C211.285 105.702 210.834 105.349 210.475 104.91C210.116 104.472 209.859 103.96 209.722 103.41C209.585 102.86 209.572 102.287 209.683 101.732C209.795 101.176 210.028 100.653 210.366 100.198C210.704 99.7439 211.139 99.3701 211.639 99.1039C212.139 98.8377 212.691 98.6857 213.257 98.6589C213.823 98.6321 214.388 98.7311 214.91 98.9488C215.068 99.0152 215.22 99.0925 215.367 99.1801L230.938 92.1893L231.375 87.9662L238.087 87.7866L238.043 94.8173C238.035 95.6318 237.764 96.4218 237.271 97.0703C236.778 97.7187 236.09 98.191 235.307 98.4169L217.098 103.6C217.062 103.72 217.02 103.839 216.973 103.955C216.68 104.653 216.189 105.249 215.559 105.668C214.93 106.088 214.191 106.313 213.434 106.314Z" fill="#A0616A"/>
<path d="M237.519 91.233C237.328 91.3296 237.119 91.3861 236.906 91.3988L232.042 91.6978C231.628 91.7228 231.221 91.5824 230.91 91.3074C230.599 91.0324 230.409 90.6452 230.383 90.2309L229.849 81.5467C229.816 81.0216 229.887 80.4951 230.057 79.9973C230.228 79.4995 230.495 79.0403 230.843 78.6458C231.191 78.2513 231.614 77.9294 232.086 77.6983C232.559 77.4673 233.073 77.3318 233.598 77.2995C234.123 77.2672 234.649 77.3387 235.147 77.51C235.644 77.6814 236.103 77.9491 236.497 78.2979C236.891 78.6468 237.212 79.0698 237.442 79.5429C237.673 80.0161 237.807 80.5299 237.839 81.0551L238.373 89.7393C238.391 90.0444 238.32 90.3482 238.169 90.6136C238.017 90.8789 237.791 91.0942 237.519 91.233Z" fill="#3467DF"/>
<path d="M226.949 107.192H199.455C199.132 107.192 198.822 107.064 198.594 106.836C198.366 106.607 198.237 106.297 198.237 105.974C198.237 105.651 198.366 105.341 198.594 105.113C198.822 104.885 199.132 104.756 199.455 104.756H226.949C227.273 104.756 227.582 104.885 227.811 105.113C228.039 105.341 228.168 105.651 228.168 105.974C228.168 106.297 228.039 106.607 227.811 106.836C227.582 107.064 227.273 107.192 226.949 107.192Z" fill="#3F3D56"/>
<path d="M187.448 104.93V87.8768C187.449 87.277 187.687 86.702 188.112 86.2779C188.536 85.8539 189.111 85.6153 189.71 85.6146H220.685C221.285 85.6153 221.86 85.8539 222.284 86.2779C222.708 86.702 222.946 87.277 222.947 87.8768V104.93C222.946 105.53 222.708 106.105 222.284 106.529C221.86 106.953 221.285 107.192 220.685 107.192H189.71C189.111 107.192 188.536 106.953 188.112 106.529C187.687 106.105 187.449 105.53 187.448 104.93Z" fill="#3F3D56"/>
<path d="M205.198 98.4917C206.351 98.4917 207.286 97.5568 207.286 96.4035C207.286 95.2503 206.351 94.3154 205.198 94.3154C204.044 94.3154 203.109 95.2503 203.109 96.4035C203.109 97.5568 204.044 98.4917 205.198 98.4917Z" fill="white"/>
<path d="M96.3271 76.3352C96.0451 75.9083 95.673 75.5484 95.2368 75.2809C94.8007 75.0134 94.3112 74.8448 93.8029 74.7869C93.2945 74.7291 92.7797 74.7834 92.2946 74.946C91.8095 75.1086 91.366 75.3756 90.9952 75.7282L79.9438 70.024L80.6309 76.4502L91.0201 80.8818C91.6537 81.4653 92.4794 81.7962 93.3406 81.8117C94.2019 81.8271 95.0389 81.5261 95.6931 80.9657C96.3472 80.4053 96.7731 79.6244 96.8899 78.771C97.0068 77.9175 96.8066 77.0509 96.3271 76.3352Z" fill="#FFB8B8"/>
<path d="M86.5057 78.9219C86.3058 79.0136 86.0887 79.0623 85.8687 79.0646C85.6488 79.0669 85.4307 79.023 85.2288 78.9355L74.7316 74.3819C71.1423 72.8255 68.2406 70.0183 66.5662 66.4825L61.0475 54.8337C60.6403 54.3104 60.3401 53.712 60.1643 53.0727C59.9884 52.4334 59.9403 51.7657 60.0227 51.1078C60.1051 50.4498 60.3164 49.8146 60.6445 49.2384C60.9726 48.6622 61.411 48.1563 61.9347 47.7497C62.4585 47.343 63.0572 47.0436 63.6968 46.8686C64.3363 46.6935 65.0041 46.6462 65.6619 46.7294C66.3197 46.8126 66.9547 47.0247 67.5305 47.3535C68.1063 47.6822 68.6116 48.1213 69.0176 48.6455L78.7181 66.6433L87.6752 73.4094C87.9316 73.604 88.122 73.8726 88.2208 74.1789C88.3195 74.4853 88.3218 74.8145 88.2274 75.1222L87.3482 77.9618C87.2538 78.2663 87.0688 78.5348 86.8179 78.7315C86.7217 78.807 86.6169 78.871 86.5057 78.9219Z" fill="#CCCCCC"/>
<path d="M60.8047 41.134C65.5255 41.134 69.3526 37.307 69.3526 32.5861C69.3526 27.8652 65.5255 24.0382 60.8047 24.0382C56.0838 24.0382 52.2567 27.8652 52.2567 32.5861C52.2567 37.307 56.0838 41.134 60.8047 41.134Z" fill="#FFB8B8"/>
<path d="M64.2669 144.719H68.5334L70.5634 128.262H64.2659L64.2669 144.719Z" fill="#FFB8B8"/>
<path d="M76.7625 148.681L63.3527 148.681L63.3525 143.5L71.5812 143.5C72.9553 143.5 74.2731 144.046 75.2448 145.017C76.2165 145.989 76.7624 147.306 76.7625 148.681Z" fill="#2F2E41"/>
<path d="M50.346 144.719H54.6124L56.6425 128.262H50.3449L50.346 144.719Z" fill="#FFB8B8"/>
<path d="M62.8414 148.681L49.4317 148.681L49.4314 143.5L57.6601 143.5C59.0342 143.5 60.3521 144.046 61.3237 145.017C62.2954 145.989 62.8413 147.306 62.8414 148.681Z" fill="#2F2E41"/>
<path d="M48.856 140.008C48.709 139.84 48.5995 139.643 48.535 139.43C48.4705 139.216 48.4524 138.991 48.4818 138.77L55.9521 82.7426L74.5119 85.8945L76.4926 84.706L71.3706 137.865C71.328 138.224 71.1629 138.557 70.9032 138.808C70.6435 139.06 70.3051 139.214 69.945 139.245L64.3252 139.713C64.1017 139.732 63.8769 139.702 63.6659 139.626C63.4548 139.551 63.2625 139.43 63.1019 139.274C62.9414 139.118 62.8163 138.928 62.7351 138.719C62.6539 138.51 62.6186 138.286 62.6315 138.063L64.0865 112.746C64.089 112.703 64.0756 112.661 64.0486 112.627C64.0217 112.594 63.9833 112.571 63.9408 112.564C63.8982 112.557 63.8547 112.566 63.8185 112.59C63.7822 112.613 63.756 112.649 63.7447 112.691L56.5465 139.384C56.4565 139.717 56.2597 140.01 55.9864 140.219C55.7132 140.429 55.3786 140.542 55.0344 140.543H50.0343C49.8111 140.543 49.5905 140.495 49.3873 140.403C49.1841 140.311 49.0029 140.176 48.856 140.008Z" fill="#2F2E41"/>
<path d="M61.7095 86.6644C61.4964 86.4715 61.2226 86.3593 60.9355 86.3473C60.6483 86.3353 60.3661 86.4243 60.1377 86.5988L56.4271 89.4849C56.2252 89.6424 55.9877 89.748 55.7355 89.7923C55.4832 89.8366 55.224 89.8183 54.9805 89.7391C54.7369 89.6598 54.5166 89.522 54.3388 89.3377C54.1609 89.1535 54.0311 88.9284 53.9605 88.6822C52.1404 82.3079 48.0168 66.263 49.0326 54.9701C49.6085 48.569 55.136 43.7041 61.3545 44.1123C65.6059 44.3957 68.4028 46.8483 69.6675 51.4015C72.7728 62.5808 76.1854 83.0872 76.838 87.0848C76.8895 87.3949 76.8461 87.7134 76.7134 87.9984C76.5807 88.2834 76.3649 88.5216 76.0944 88.6818C74.3388 89.7358 72.3329 90.3003 70.2852 90.3166C67.8076 90.3166 64.8368 89.454 61.7095 86.6644Z" fill="#CCCCCC"/>
<path d="M63.1095 90.6411C63.151 90.1312 63.0803 89.6183 62.9022 89.1387C62.7241 88.6591 62.443 88.2243 62.0787 87.8651C61.7144 87.5058 61.2758 87.2308 60.7937 87.0594C60.3117 86.888 59.7979 86.8244 59.2886 86.8731L54.1128 75.5646L50.6877 81.0451L56.1278 90.9436C56.2662 91.7938 56.7117 92.5637 57.3799 93.1073C58.048 93.651 58.8924 93.9307 59.753 93.8934C60.6136 93.8561 61.4306 93.5045 62.0492 92.905C62.6678 92.3056 63.0451 91.5001 63.1095 90.6411Z" fill="#FFB8B8"/>
<path d="M53.7851 86.6154C53.5711 86.5642 53.3704 86.4685 53.1958 86.3346C53.0212 86.2007 52.8768 86.0316 52.7719 85.8382L47.3221 75.777C45.4584 72.3373 44.9075 68.3377 45.7719 64.5222L48.6182 51.9504C48.6208 51.2874 48.754 50.6315 49.0103 50.02C49.2665 49.4086 49.6407 48.8536 50.1116 48.3869C50.5824 47.9202 51.1406 47.5509 51.7543 47.3C52.3679 47.0491 53.025 46.9217 53.688 46.9249C54.3509 46.9281 55.0068 47.062 55.618 47.3189C56.2291 47.5757 56.7837 47.9505 57.25 48.4218C57.7162 48.8931 58.085 49.4517 58.3353 50.0656C58.5855 50.6795 58.7123 51.3367 58.7084 51.9997L55.2346 72.1479L58.1071 82.9996C58.1888 83.3109 58.1729 83.6398 58.0616 83.9418C57.9502 84.2437 57.7489 84.5042 57.4847 84.688L55.0405 86.3799C54.7783 86.5612 54.467 86.6583 54.1482 86.6583C54.0259 86.6584 53.904 86.644 53.7851 86.6154Z" fill="#CCCCCC"/>
<path opacity="0.2" d="M58.0151 60.4969L54.8828 73.7219L59.4072 84.8587L56.2749 74.0699L58.0151 60.4969Z" fill="black"/>
<path d="M55.9268 39.6151C55.1664 39.6292 54.4108 39.4925 53.7036 39.2129C53.3924 39.093 53.0694 38.9944 52.7588 38.8744C50.0158 37.8146 48.2088 34.8933 48.1441 31.9534C48.0794 29.0135 49.6019 26.16 51.8626 24.2795C54.1234 22.399 57.0517 21.4335 59.9838 21.2102C63.1423 20.9697 66.6988 21.7707 68.4636 24.401C68.9334 25.1012 69.262 25.9506 68.9836 26.796C68.9002 27.0511 68.7513 27.2798 68.5518 27.4593C67.7636 28.1605 66.9778 27.6333 66.1743 27.5867C65.07 27.5227 64.078 28.4166 63.7215 29.4638C63.365 30.511 63.522 31.6639 63.8098 32.732C64.0291 33.3747 64.1674 34.0423 64.2214 34.7193C64.2446 35.0587 64.1808 35.3985 64.0359 35.7063C63.891 36.0142 63.6699 36.28 63.3935 36.4784C62.7035 36.8956 61.7972 36.6542 61.1067 36.2377C60.4162 35.8212 59.8195 35.2422 59.0736 34.9357C58.3278 34.6292 57.3257 34.6972 56.8916 35.3768C56.7536 35.624 56.6602 35.8936 56.6157 36.1733C56.2265 37.9464 56.316 37.842 55.9268 39.6151Z" fill="#2F2E41"/>
<path d="M130.04 68.6234C129.898 68.444 129.799 68.2346 129.75 68.0111C129.701 67.7877 129.704 67.556 129.759 67.3339C131.057 61.8969 131.057 56.2308 129.759 50.7938C129.704 50.5717 129.701 50.3401 129.75 50.1166C129.799 49.8932 129.898 49.6838 130.04 49.5044C130.178 49.3275 130.356 49.1845 130.558 49.0865C130.76 48.9885 130.983 48.9379 131.207 48.9386H145.084C145.439 48.9393 145.781 49.0658 146.051 49.2956C146.322 49.5254 146.501 49.8435 146.559 50.1935C147.464 56.0724 147.464 62.0553 146.559 67.9343C146.501 68.2842 146.322 68.6024 146.051 68.8322C145.781 69.062 145.439 69.1885 145.084 69.1891H131.207C130.983 69.1898 130.76 69.1393 130.558 69.0412C130.356 68.9432 130.178 68.8003 130.04 68.6234Z" fill="#E6E6E6"/>
<path d="M108.573 19.6846C108.431 19.5052 108.332 19.2958 108.283 19.0724C108.235 18.849 108.238 18.6174 108.292 18.3953C109.59 12.9584 109.59 7.29222 108.292 1.85527C108.238 1.63316 108.235 1.40157 108.283 1.17815C108.332 0.954729 108.431 0.745358 108.573 0.565981C108.712 0.389022 108.889 0.246063 109.091 0.147984C109.294 0.0499039 109.516 -0.000705894 109.741 7.43714e-06H123.617C123.972 0.000722093 124.315 0.127234 124.585 0.35703C124.855 0.586827 125.035 0.904991 125.092 1.25489C125.997 7.13385 125.997 13.1167 125.092 18.9957C125.035 19.3456 124.855 19.6637 124.585 19.8935C124.315 20.1233 123.972 20.2499 123.617 20.2506H109.741C109.516 20.2513 109.294 20.2007 109.091 20.1026C108.889 20.0045 108.712 19.8616 108.573 19.6846Z" fill="#E6E6E6"/>
<path d="M142.718 36.055C141.813 30.1761 141.813 24.1932 142.718 18.3142C142.776 17.9643 142.955 17.6461 143.226 17.4163C143.496 17.1865 143.838 17.06 144.193 17.0593H158.07C158.295 17.0586 158.517 17.1092 158.719 17.2073C158.921 17.3054 159.099 17.4484 159.237 17.6253C159.379 17.8047 159.478 18.0141 159.527 18.2375C159.576 18.4609 159.573 18.6925 159.518 18.9146C158.22 24.3515 158.22 30.0177 159.518 35.4546C159.573 35.6767 159.576 35.9083 159.527 36.1317C159.478 36.3552 159.379 36.5645 159.237 36.7439C159.099 36.9209 158.921 37.0638 158.719 37.1619C158.517 37.26 158.295 37.3106 158.07 37.3099H144.193C143.838 37.3092 143.496 37.1827 143.226 36.9529C142.955 36.7231 142.776 36.4049 142.718 36.055Z" fill="#3467DF"/>
<path d="M84.6248 35.4356C83.7197 29.5566 83.7197 23.5738 84.6248 17.6948C84.6822 17.3449 84.8619 17.0267 85.132 16.7969C85.402 16.5671 85.7448 16.4406 86.0994 16.4399H99.9761C100.201 16.4392 100.423 16.4898 100.625 16.5879C100.828 16.686 101.005 16.8289 101.144 17.0059C101.286 17.1853 101.385 17.3946 101.433 17.6181C101.482 17.8415 101.479 18.0731 101.425 18.2952C100.127 23.7321 100.127 29.3983 101.425 34.8352C101.479 35.0573 101.482 35.2889 101.433 35.5123C101.385 35.7358 101.286 35.9451 101.144 36.1245C101.005 36.3015 100.828 36.4444 100.625 36.5425C100.423 36.6406 100.201 36.6912 99.9761 36.6905H86.0994C85.7448 36.6898 85.402 36.5632 85.132 36.3334C84.8619 36.1036 84.6822 35.7855 84.6248 35.4356Z" fill="#FF6584"/>
<path d="M88.057 76.3886C87.9128 76.2062 87.8122 75.9934 87.7627 75.7663C87.7132 75.5391 87.7162 75.3037 87.7714 75.0779C89.0908 69.5517 89.0908 63.7924 87.7713 58.2661C87.7161 58.0403 87.7132 57.8049 87.7627 57.5778C87.8122 57.3507 87.9128 57.1378 88.057 56.9555C88.1981 56.7757 88.3783 56.6304 88.584 56.5308C88.7897 56.4311 89.0154 56.3797 89.2439 56.3804H103.348C103.709 56.3811 104.057 56.5097 104.332 56.7433C104.606 56.9768 104.789 57.3003 104.847 57.6559C105.767 63.6315 105.767 69.7126 104.847 75.6882C104.789 76.0438 104.606 76.3672 104.332 76.6008C104.057 76.8344 103.709 76.963 103.348 76.9637H89.2439C89.0154 76.9644 88.7897 76.913 88.584 76.8133C88.3783 76.7136 88.1981 76.5684 88.057 76.3886Z" fill="#3467DF"/>
<path d="M4.37885 149H273.506C273.616 149 273.721 148.956 273.799 148.879C273.877 148.801 273.921 148.696 273.921 148.586C273.921 148.476 273.877 148.37 273.799 148.293C273.721 148.215 273.616 148.171 273.506 148.171H4.37885C4.32433 148.171 4.27032 148.182 4.2199 148.202C4.16949 148.223 4.12367 148.254 4.08506 148.292C4.04645 148.331 4.01582 148.376 3.99492 148.427C3.97402 148.477 3.96326 148.531 3.96326 148.586C3.96326 148.64 3.97402 148.694 3.99492 148.744C4.01582 148.795 4.04645 148.841 4.08506 148.879C4.12367 148.918 4.16949 148.948 4.2199 148.969C4.27032 148.99 4.32433 149 4.37885 149Z" fill="#3F3D56"/>
<path d="M100.627 63.9749H93.1965C92.9197 63.9746 92.6543 63.8645 92.4585 63.6688C92.2628 63.4731 92.1527 63.2077 92.1524 62.9309V62.4875C92.1527 62.2107 92.2628 61.9453 92.4585 61.7496C92.6543 61.5538 92.9197 61.4437 93.1965 61.4434H100.627C100.903 61.4437 101.169 61.5538 101.365 61.7496C101.56 61.9453 101.67 62.2107 101.671 62.4875V62.9309C101.67 63.2077 101.56 63.4731 101.365 63.6688C101.169 63.8645 100.903 63.9746 100.627 63.9749Z" fill="white"/>
<path d="M100.627 68.3418H93.1965C92.9197 68.3415 92.6543 68.2314 92.4585 68.0356C92.2628 67.8399 92.1527 67.5745 92.1524 67.2977V66.8543C92.1527 66.5775 92.2628 66.3121 92.4585 66.1164C92.6543 65.9206 92.9197 65.8105 93.1965 65.8102H100.627C100.903 65.8105 101.169 65.9206 101.365 66.1164C101.56 66.3121 101.67 66.5775 101.671 66.8543V67.2977C101.67 67.5745 101.56 67.8399 101.365 68.0356C101.169 68.2314 100.903 68.3415 100.627 68.3418Z" fill="white"/>
<path d="M95.7058 25.028H88.4238C88.147 25.0277 87.8816 24.9176 87.6859 24.7219C87.4902 24.5262 87.3801 24.2608 87.3798 23.984V23.5761C87.3801 23.2993 87.4902 23.0339 87.6859 22.8382C87.8816 22.6424 88.147 22.5323 88.4238 22.532H95.7058C95.9826 22.5323 96.248 22.6424 96.4438 22.8382C96.6395 23.0339 96.7496 23.2993 96.7499 23.5761V23.984C96.7496 24.2608 96.6395 24.5262 96.4438 24.7219C96.248 24.9176 95.9826 25.0277 95.7058 25.028Z" fill="white"/>
<path d="M142.23 55.6995H134.948C134.671 55.6992 134.406 55.5891 134.21 55.3933C134.014 55.1976 133.904 54.9322 133.904 54.6554V54.2474C133.904 53.9706 134.014 53.7052 134.21 53.5094C134.406 53.3137 134.671 53.2036 134.948 53.2033H142.23C142.507 53.2036 142.772 53.3137 142.968 53.5094C143.164 53.7052 143.274 53.9706 143.274 54.2474V54.6554C143.274 54.9322 143.164 55.1976 142.968 55.3933C142.772 55.5891 142.507 55.6992 142.23 55.6995Z" fill="white"/>
<path d="M142.23 60.855H134.948C134.671 60.8547 134.406 60.7446 134.21 60.5488C134.014 60.3531 133.904 60.0877 133.904 59.8109V59.4029C133.904 59.1261 134.014 58.8607 134.21 58.6649C134.406 58.4692 134.671 58.3591 134.948 58.3588H142.23C142.507 58.3591 142.772 58.4692 142.968 58.6649C143.164 58.8607 143.274 59.1261 143.274 59.4029V59.8109C143.274 60.0877 143.164 60.3531 142.968 60.5488C142.772 60.7446 142.507 60.8547 142.23 60.855Z" fill="white"/>
<path d="M142.23 66.0104H134.948C134.671 66.0101 134.406 65.9 134.21 65.7043C134.014 65.5085 133.904 65.2431 133.904 64.9663V64.5583C133.904 64.2815 134.014 64.0161 134.21 63.8204C134.406 63.6246 134.671 63.5145 134.948 63.5142H142.23C142.507 63.5145 142.772 63.6246 142.968 63.8204C143.164 64.0161 143.274 64.2815 143.274 64.5583V64.9663C143.274 65.2431 143.164 65.5085 142.968 65.7043C142.772 65.9 142.507 66.0101 142.23 66.0104Z" fill="white"/>
<path d="M95.7058 29.3243H88.4238C88.147 29.324 87.8816 29.2139 87.6859 29.0182C87.4902 28.8225 87.3801 28.5571 87.3798 28.2803V27.8723C87.3801 27.5954 87.4902 27.33 87.6859 27.1343C87.8816 26.9386 88.147 26.8285 88.4238 26.8282H95.7058C95.9826 26.8285 96.248 26.9386 96.4438 27.1343C96.6395 27.33 96.7496 27.5954 96.7499 27.8723V28.2803C96.7496 28.5571 96.6395 28.8225 96.4438 29.0182C96.248 29.2139 95.9826 29.324 95.7058 29.3243Z" fill="white"/>
<path d="M120.825 7.62006H113.543C113.267 7.61976 113.001 7.50966 112.805 7.31392C112.61 7.11819 112.5 6.8528 112.499 6.57598V6.16797C112.5 5.89115 112.61 5.62576 112.805 5.43002C113.001 5.23429 113.267 5.12419 113.543 5.12389H120.825C121.102 5.12419 121.368 5.23429 121.563 5.43002C121.759 5.62576 121.869 5.89115 121.869 6.16797V6.57598C121.869 6.8528 121.759 7.11819 121.563 7.31392C121.368 7.50966 121.102 7.61976 120.825 7.62006Z" fill="white"/>
<path d="M154.053 26.0772H146.771C146.494 26.0769 146.229 25.9668 146.033 25.7711C145.837 25.5753 145.727 25.3099 145.727 25.0331V24.6251C145.727 24.3483 145.837 24.0829 146.033 23.8872C146.229 23.6914 146.494 23.5813 146.771 23.581H154.053C154.33 23.5813 154.595 23.6914 154.791 23.8872C154.986 24.0829 155.097 24.3483 155.097 24.6251V25.0331C155.097 25.3099 154.986 25.5753 154.791 25.7711C154.595 25.9668 154.33 26.0769 154.053 26.0772Z" fill="white"/>
</g>
<defs>
<clipPath id="clip0_45_1057">
<rect width="273.92" height="149" fill="white"/>
</clipPath>
</defs>
</svg>
