<svg width="140" height="158" viewBox="0 0 140 158" fill="none" xmlns="http://www.w3.org/2000/svg">
<g clip-path="url(#clip0_216_919)">
<path d="M79.0065 121.404C112.341 121.404 139.364 94.3815 139.364 61.0469C139.364 27.7124 112.341 0.689484 79.0065 0.689484C45.6718 0.689484 18.6487 27.7124 18.6487 61.0469C18.6487 94.3815 45.6718 121.404 79.0065 121.404Z" fill="#F2F2F2"/>
<path d="M118.449 27.6812H7.88228C7.64519 27.6762 7.45709 27.4799 7.46216 27.2428C7.46708 27.0128 7.65232 26.8276 7.88228 26.8226H118.449C118.686 26.8277 118.875 27.024 118.869 27.2611C118.865 27.4911 118.679 27.6763 118.449 27.6812Z" fill="#CACACA"/>
<path d="M80.7684 42.149H50.2033C47.9075 42.149 46.0464 44.0101 46.0464 46.3059V46.3059C46.0464 48.6017 47.9075 50.4628 50.2033 50.4628H80.7684C83.0642 50.4628 84.9253 48.6017 84.9253 46.3059C84.9253 44.0101 83.0642 42.149 80.7684 42.149Z" fill="white"/>
<path d="M30.4581 58.7768H100.514C102.81 58.7768 104.671 60.6379 104.671 62.9337C104.671 65.2294 102.81 67.0905 100.514 67.0905H30.4581C28.1623 67.0905 26.3012 65.2294 26.3012 62.9337C26.3012 60.6379 28.1623 58.7768 30.4581 58.7768Z" fill="white"/>
<path d="M30.4581 75.4042H100.514C102.81 75.4042 104.671 77.2653 104.671 79.5611C104.671 81.8569 102.81 83.718 100.514 83.718H30.4581C28.1623 83.718 26.3012 81.8569 26.3012 79.5611C26.3012 77.2653 28.1623 75.4042 30.4581 75.4042Z" fill="white"/>
<path d="M21.7765 156.991L21.6116 156.975C16.0177 156.398 10.9608 153.39 7.78439 148.749C6.91434 147.456 6.21058 146.058 5.6897 144.59L5.63963 144.449L5.78785 144.437C7.55747 144.295 9.37541 143.995 10.183 143.852L4.97543 142.087L4.94323 141.933C4.63449 140.482 5.23934 138.99 6.47082 138.164C7.70564 137.298 9.34312 137.27 10.6065 138.094C11.1735 138.456 11.7665 138.815 12.34 139.162C14.3107 140.354 16.3485 141.586 17.8763 143.273C20.1931 145.881 21.2086 149.396 20.64 152.839L21.7765 156.991Z" fill="#F2F2F2"/>
<path d="M40.706 154.402L43.2724 154.402L44.4936 144.502L40.7053 144.502L40.706 154.402Z" fill="#A0616A"/>
<path d="M40.6152 157.079L48.5079 157.079V156.979C48.5078 155.283 47.1324 153.907 45.4359 153.907L43.994 152.813L41.3041 153.907L40.6151 153.907L40.6152 157.079Z" fill="#2F2E41"/>
<path d="M20.1369 147.293L22.1898 148.833L29.1079 141.647L26.0777 139.374L20.1369 147.293Z" fill="#A0616A"/>
<path d="M18.4576 149.381L24.7712 154.117L24.8311 154.037C25.8492 152.68 25.5744 150.755 24.2174 149.736L23.7204 147.996L20.9122 147.257L20.3611 146.843L18.4576 149.381Z" fill="#2F2E41"/>
<path d="M28.6686 107.944C28.6686 107.944 28.8103 111.809 28.989 114.908C29.0183 115.417 27.8274 115.969 27.8583 116.522C27.8787 116.889 28.1026 117.245 28.1234 117.628C28.1453 118.032 27.8363 118.389 27.8583 118.806C27.8798 119.214 28.2324 119.682 28.2536 120.1C28.4825 124.593 29.3122 129.972 28.4814 131.476C28.0719 132.217 22.8531 142.484 22.8531 142.484C22.8531 142.484 25.7608 146.846 26.5916 145.392C27.6889 143.471 36.1458 134.488 36.1458 132.772C36.1458 131.058 38.1023 118.216 38.1023 118.216L39.4665 125.816L40.092 127.322L39.8955 128.206L40.2997 129.399L40.3216 130.58L40.7151 132.772C40.7151 132.772 39.5313 149.853 40.198 150.329C40.8667 150.806 44.1048 151.664 44.4869 150.806C44.867 149.949 47.341 132.98 47.341 132.98C47.341 132.98 47.7398 125.203 48.1718 117.976C48.1967 117.556 48.4917 117.049 48.5145 116.636C48.5415 116.156 48.3546 115.533 48.3795 115.068C48.4065 114.534 48.6433 114.158 48.6661 113.647C48.8427 109.699 47.8517 104.891 47.536 104.417C46.5826 102.988 45.7248 101.846 45.7248 101.846C45.7248 101.846 32.8844 97.627 29.4532 101.914L28.6686 107.944Z" fill="#2F2E41"/>
<path d="M41.4752 68.2005L36.385 67.1824L34.0096 70.4062C29.5772 74.7644 29.5104 78.6109 30.3017 84.7764V93.4298L29.729 99.2307C29.729 99.2307 27.7016 103.471 29.7926 104.459C31.8836 105.446 45.6183 105.362 46.9297 104.968C48.241 104.573 47.1044 104.09 46.76 102.253C46.1132 98.8026 46.5458 100.467 46.5903 99.3683C47.2286 83.6104 45.742 77.1412 45.591 75.4407L43.0023 70.7455L41.4752 68.2005Z" fill="#3F3D56"/>
<path d="M68.3038 80.9058C67.7733 81.911 66.5284 82.2958 65.5232 81.7653C65.416 81.7087 65.314 81.6428 65.2185 81.5683L54.2257 88.5482L54.2574 84.7479L64.936 78.5509C65.6967 77.6981 67.0046 77.6234 67.8574 78.384C68.571 79.0205 68.7556 80.063 68.3038 80.9058Z" fill="#A0616A"/>
<path d="M37.4563 72.6017L36.2048 72.4691C35.0484 72.3491 33.9139 72.8444 33.2156 73.7739C32.9481 74.1264 32.756 74.5301 32.6512 74.96L32.6505 74.9635C32.3365 76.2574 32.8289 77.6135 33.8999 78.4046L38.2225 81.5914C41.2559 85.6902 46.9569 88.4096 53.6442 90.6188L64.0387 84.1633L60.3622 79.7105L53.2325 83.5315L42.6347 75.3277L42.6285 75.3228L38.595 72.7241L37.4563 72.6017Z" fill="#3F3D56"/>
<path d="M39.7554 65.701C43.0337 65.701 45.6913 63.0434 45.6913 59.7651C45.6913 56.4868 43.0337 53.8292 39.7554 53.8292C36.4771 53.8292 33.8195 56.4868 33.8195 59.7651C33.8195 63.0434 36.4771 65.701 39.7554 65.701Z" fill="#A0616A"/>
<path d="M39.8927 65.7021C39.8448 65.7037 39.7968 65.7048 39.7489 65.7061C39.7283 65.7593 39.7062 65.8121 39.6807 65.8639L39.8927 65.7021Z" fill="#2F2E41"/>
<path d="M41.5213 59.9297C41.5306 59.9883 41.5449 60.0459 41.5639 60.102C41.5561 60.0432 41.5418 59.9854 41.5213 59.9297Z" fill="#2F2E41"/>
<path d="M45.7671 54.083C45.5227 54.8417 45.3047 53.8793 44.5009 54.0524C43.534 54.2606 42.4089 54.1891 41.6171 53.5964C40.4373 52.7308 38.9084 52.4978 37.5243 52.9727C36.1695 53.452 33.8997 53.7899 33.5466 55.183C33.4239 55.6673 33.3752 56.1928 33.0778 56.5941C32.8177 56.945 32.4072 57.145 32.064 57.4151C30.905 58.327 31.7908 60.9177 32.3394 62.2866C32.8879 63.6555 34.1462 64.6527 35.5296 65.1635C36.8681 65.6577 38.3209 65.7449 39.7488 65.706C39.9971 65.0619 39.8898 64.318 39.6849 63.6502C39.4631 62.9274 39.1346 62.2297 39.0419 61.4793C38.9492 60.7288 39.1527 59.8764 39.782 59.4571C40.3604 59.0717 41.3015 59.3065 41.5216 59.9296C41.3932 59.1505 42.1824 58.3967 42.9961 58.2641C43.8697 58.1218 44.7434 58.4372 45.6145 58.5942C46.4856 58.7512 46.1764 55.0837 45.7671 54.083Z" fill="#2F2E41"/>
<path d="M78.965 69.5842C79.5184 62.8981 74.5468 57.0294 67.8607 56.4761C61.1747 55.9227 55.306 60.8943 54.7526 67.5803C54.1992 74.2664 59.1708 80.1351 65.8569 80.6885C72.5429 81.2418 78.4117 76.2703 78.965 69.5842Z" fill="#3467DF"/>
<path d="M70.0499 63.5208L66.859 66.7117L63.668 63.5208C63.1515 63.0042 62.314 63.0042 61.7975 63.5208C61.281 64.0373 61.281 64.8748 61.7975 65.3913L64.9884 68.5823L61.7975 71.7732C61.2814 72.2902 61.2822 73.1277 61.7992 73.6438C62.3156 74.1591 63.1517 74.1591 63.668 73.6437L66.859 70.4528L70.0499 73.6437C70.567 74.1598 71.4044 74.159 71.9205 73.642C72.4359 73.1257 72.4359 72.2895 71.9205 71.7732L68.7296 68.5823L71.9205 65.3913C72.437 64.8748 72.437 64.0373 71.9205 63.5208C71.404 63.0042 70.5665 63.0042 70.0499 63.5208Z" fill="white"/>
<path d="M62.0718 58.3721C62.4299 59.4508 61.8457 60.6155 60.767 60.9736C60.652 61.0118 60.5339 61.0397 60.4139 61.0571L57.8403 73.8217L55.1199 71.1679L58.041 59.172C57.9522 58.0327 58.8038 57.0371 59.9431 56.9484C60.8964 56.8741 61.7765 57.4626 62.0718 58.3721Z" fill="#A0616A"/>
<path d="M34.7236 74.8829L33.7615 75.6941C32.8744 76.4456 32.4463 77.6071 32.6336 78.7545C32.7028 79.1916 32.8612 79.6097 33.0989 79.9829L33.1008 79.9859C33.8172 81.1082 35.1366 81.6917 36.449 81.4665L41.7411 80.5536C46.799 81.2024 52.7081 78.9711 58.9319 75.675L61.4697 63.7051L55.7113 63.2755L53.5327 71.0655L40.2758 73.0334L40.268 73.0344L35.6002 74.146L34.7236 74.8829Z" fill="#3F3D56"/>
<path d="M64.8576 157.284L0.282026 157.357C0.125764 157.357 -0.000504632 157.23 1.51637e-06 157.073C0.000502912 156.918 0.126475 156.792 0.282026 156.791L64.8576 156.718C65.0138 156.719 65.1401 156.846 65.1396 157.002C65.1391 157.158 65.0131 157.284 64.8576 157.284Z" fill="#CACACA"/>
<path d="M13.4918 22.2432C14.6016 22.2432 15.5013 21.3234 15.5013 20.1889C15.5013 19.0543 14.6016 18.1346 13.4918 18.1346C12.382 18.1346 11.4823 19.0543 11.4823 20.1889C11.4823 21.3234 12.382 22.2432 13.4918 22.2432Z" fill="#3F3D56"/>
<path d="M20.4338 22.2432C21.5437 22.2432 22.4434 21.3234 22.4434 20.1888C22.4434 19.0543 21.5437 18.1345 20.4338 18.1345C19.324 18.1345 18.4243 19.0543 18.4243 20.1888C18.4243 21.3234 19.324 22.2432 20.4338 22.2432Z" fill="#3F3D56"/>
<path d="M27.3759 22.2432C28.4857 22.2432 29.3854 21.3234 29.3854 20.1888C29.3854 19.0543 28.4857 18.1345 27.3759 18.1345C26.266 18.1345 25.3663 19.0543 25.3663 20.1888C25.3663 21.3234 26.266 22.2432 27.3759 22.2432Z" fill="#3F3D56"/>
<path d="M35.2916 21.8125C35.2299 21.8125 35.1683 21.7886 35.1218 21.741L33.7658 20.355C33.6754 20.2626 33.6754 20.115 33.7658 20.0227L35.1218 18.6367C35.2138 18.5429 35.3644 18.5414 35.4578 18.633C35.5516 18.7247 35.5533 18.8752 35.4615 18.969L34.2681 20.1888L35.4615 21.4087C35.5533 21.5025 35.5516 21.653 35.4578 21.7448C35.4116 21.79 35.3516 21.8125 35.2916 21.8125Z" fill="#3F3D56"/>
<path d="M37.57 21.8125C37.5101 21.8125 37.4501 21.79 37.4039 21.7448C37.31 21.653 37.3084 21.5026 37.4002 21.4087L38.5934 20.1888L37.4002 18.969C37.3084 18.8752 37.31 18.7247 37.4039 18.633C37.4975 18.5411 37.6481 18.5428 37.7399 18.6367L39.0957 20.0226C39.1861 20.115 39.1861 20.2626 39.0957 20.355L37.7399 21.741C37.6934 21.7886 37.6318 21.8125 37.57 21.8125Z" fill="#3F3D56"/>
<path d="M108.505 18.3724H105.983C105.696 18.3724 105.463 18.6052 105.463 18.8928V21.4164C105.463 21.7039 105.696 21.9368 105.983 21.9368H108.505C108.792 21.9368 109.027 21.7039 109.027 21.4164V18.8928C109.027 18.6052 108.792 18.3724 108.505 18.3724Z" fill="#3F3D56"/>
<path d="M102.327 18.3724H99.8053C99.5178 18.3724 99.2849 18.6052 99.2849 18.8928V21.4164C99.2849 21.7039 99.5178 21.9368 99.8053 21.9368H102.327C102.614 21.9368 102.849 21.7039 102.849 21.4164V18.8928C102.849 18.6052 102.614 18.3724 102.327 18.3724Z" fill="#3F3D56"/>
<path d="M114.326 18.4912H111.805C111.518 18.4912 111.285 18.7241 111.285 19.0116V21.5352C111.285 21.8227 111.518 22.0556 111.805 22.0556H114.326C114.614 22.0556 114.849 21.8227 114.849 21.5352V19.0116C114.849 18.7241 114.614 18.4912 114.326 18.4912Z" fill="#3F3D56"/>
<path d="M76.3246 19.4512H56.1713C55.8196 19.4512 55.5368 19.7364 55.5368 20.0857C55.5368 20.435 55.8196 20.7201 56.1713 20.7201H76.3246C76.6739 20.7201 76.9591 20.435 76.9591 20.0857C76.9591 19.7364 76.6739 19.4512 76.3246 19.4512Z" fill="#3F3D56"/>
</g>
<defs>
<clipPath id="clip0_216_919">
<rect width="139.364" height="158" fill="white"/>
</clipPath>
</defs>
</svg>
